<svg width="18" height="18" viewBox="0 0 18 18" fill="none" xmlns="http://www.w3.org/2000/svg">
<path d="M11.35 17.65L6 15.775L1.35 17.575C1.18333 17.6417 1.02067 17.6627 0.862 17.638C0.703333 17.6133 0.557667 17.559 0.425 17.475C0.292333 17.391 0.188333 17.2787 0.113 17.138C0.0376666 16.9973 0 16.8347 0 16.65V2.625C0 2.40833 0.0626666 2.21667 0.188 2.05C0.313333 1.88333 0.484 1.75833 0.7 1.675L5.35 0.0999999C5.45 0.0666666 5.55433 0.0416668 5.663 0.0250001C5.77167 0.00833343 5.884 0 6 0C6.116 0 6.22867 0.00833343 6.338 0.0250001C6.44733 0.0416668 6.55133 0.0666666 6.65 0.0999999L12 1.975L16.65 0.175C16.8167 0.108333 16.9793 0.0876666 17.138 0.113C17.2967 0.138333 17.4423 0.192333 17.575 0.275C17.7077 0.357667 17.812 0.470333 17.888 0.613C17.964 0.755667 18.0013 0.918 18 1.1V15.125C18 15.3417 17.9377 15.5333 17.813 15.7C17.6883 15.8667 17.5173 15.9917 17.3 16.075L12.65 17.65C12.55 17.6833 12.446 17.7083 12.338 17.725C12.23 17.7417 12.1173 17.75 12 17.75C11.8827 17.75 11.7703 17.7417 11.663 17.725C11.5557 17.7083 11.4513 17.6833 11.35 17.65ZM11 15.425V3.725L7 2.325V14.025L11 15.425ZM13 15.425L16 14.425V2.575L13 3.725V15.425ZM2 15.175L5 14.025V2.325L2 3.325V15.175Z" fill="#1E1E1E"/>
</svg>
