<svg width="24" height="24" viewBox="0 0 24 24" fill="none" xmlns="http://www.w3.org/2000/svg">
<path d="M12.707 2.29303C12.5195 2.10556 12.2652 2.00024 12 2.00024C11.7348 2.00024 11.4805 2.10556 11.293 2.29303L7.293 6.29303C7.14139 6.44467 7.04253 6.64103 7.01102 6.85314C6.97951 7.06525 7.01702 7.28186 7.118 7.47103C7.365 7.93403 7.751 8.24603 8.128 8.45803L5.293 11.293C5.10553 11.4806 5.00022 11.7349 5.00022 12C5.00022 12.2652 5.10553 12.5195 5.293 12.707C5.771 13.185 6.375 13.477 6.927 13.659L4.293 16.293C4.17227 16.4139 4.0845 16.5637 4.03809 16.7281C3.99167 16.8925 3.98815 17.0661 4.02786 17.2322C4.06757 17.3984 4.14919 17.5516 4.26493 17.6772C4.38066 17.8029 4.52666 17.8968 4.689 17.95C5.379 18.177 6.092 18.338 6.804 18.48C7.584 18.637 8.55 18.792 9.649 18.892L9.051 20.684C9.00093 20.8344 8.9873 20.9944 9.01124 21.1511C9.03517 21.3077 9.09598 21.4564 9.18866 21.5849C9.28134 21.7135 9.40323 21.8181 9.5443 21.8903C9.68536 21.9625 9.84155 22.0001 10 22H14C14.1585 22.0001 14.3146 21.9625 14.4557 21.8903C14.5968 21.8181 14.7187 21.7135 14.8113 21.5849C14.904 21.4564 14.9648 21.3077 14.9888 21.1511C15.0127 20.9944 14.9991 20.8344 14.949 20.684L14.351 18.892C15.451 18.792 16.417 18.637 17.196 18.481C17.908 18.338 18.626 18.177 19.316 17.949C19.4778 17.8952 19.6231 17.8008 19.7381 17.675C19.8531 17.5491 19.9341 17.396 19.9733 17.2301C20.0124 17.0641 20.0085 16.8909 19.9619 16.7269C19.9153 16.5629 19.8276 16.4136 19.707 16.293L17.073 13.659C17.625 13.478 18.229 13.185 18.707 12.707C18.8945 12.5195 18.9998 12.2652 18.9998 12C18.9998 11.7349 18.8945 11.4806 18.707 11.293L15.872 8.45803C16.249 8.24603 16.635 7.93403 16.882 7.47103C16.983 7.28186 17.0205 7.06525 16.989 6.85314C16.9575 6.64103 16.8586 6.44467 16.707 6.29303L12.707 2.29303Z" fill="#010101"/>
</svg>
