<svg width="20" height="20" viewBox="0 0 20 20" fill="none" xmlns="http://www.w3.org/2000/svg">
<g clip-path="url(#clip0_23_415)">
<path d="M19.9415 4.62494C19.8771 4.47301 19.7691 4.34359 19.6312 4.2531C19.4932 4.1626 19.3315 4.1151 19.1665 4.11661H17.9248C17.8829 4.11726 17.8419 4.10474 17.8075 4.08082C17.7731 4.05689 17.7471 4.02278 17.7331 3.98328L17.0248 2.12494C16.9487 1.98586 16.8366 1.86981 16.7003 1.78897C16.5639 1.70813 16.4083 1.66547 16.2498 1.66547C16.0913 1.66547 15.9357 1.70813 15.7993 1.78897C15.663 1.86981 15.5509 1.98586 15.4748 2.12494L14.9998 3.33328V3.39161C14.985 3.74137 14.8826 4.0818 14.7021 4.38173C14.5215 4.68165 14.2686 4.93147 13.9665 5.10828C13.9274 5.13517 13.8986 5.17461 13.885 5.22008C13.8713 5.26554 13.8736 5.3143 13.8915 5.35828L14.0831 5.79994C14.2583 6.20112 14.3027 6.64728 14.21 7.07511C14.1172 7.50293 13.8921 7.89067 13.5665 8.18328C13.493 8.23967 13.4149 8.28985 13.3331 8.33328C13.2962 8.36198 13.2691 8.40148 13.2557 8.44629C13.2422 8.4911 13.2431 8.53898 13.2581 8.58328C13.3083 8.70208 13.3853 8.80763 13.4831 8.89161C13.6137 9.01554 13.7808 9.09388 13.9596 9.11491C14.1383 9.13594 14.3191 9.09853 14.4748 9.00828L16.1415 8.09161C16.1725 8.07152 16.2087 8.06083 16.2456 8.06083C16.2826 8.06083 16.3188 8.07152 16.3498 8.09161L17.9748 9.00828C18.1043 9.08169 18.251 9.1191 18.3998 9.11661C18.6132 9.118 18.819 9.03747 18.9748 8.89161C19.1036 8.7724 19.1915 8.61557 19.2259 8.44349C19.2603 8.27141 19.2395 8.09285 19.1665 7.93328L18.5831 6.55828C18.5661 6.51288 18.5643 6.46322 18.5778 6.41667C18.5913 6.37012 18.6195 6.32918 18.6581 6.29994L19.7415 5.54161C19.863 5.42656 19.9471 5.27759 19.9827 5.1141C20.0184 4.9506 20.004 4.78015 19.9415 4.62494ZM6.43314 8.17494C6.11628 7.8854 5.8966 7.50505 5.80411 7.0859C5.71163 6.66675 5.75087 6.22928 5.91647 5.83328L6.0998 5.39994C6.11911 5.35562 6.12303 5.30611 6.11095 5.2593C6.09887 5.21249 6.07148 5.17106 6.03314 5.14161C5.72233 4.95184 5.46459 4.68652 5.28391 4.37033C5.10324 4.05415 5.0055 3.6974 4.9998 3.33328L4.53314 2.12494C4.47035 1.9721 4.36355 1.84137 4.2263 1.74937C4.08904 1.65737 3.92754 1.60825 3.7623 1.60825C3.59707 1.60825 3.43556 1.65737 3.29831 1.74937C3.16106 1.84137 3.05425 1.9721 2.99147 2.12494L2.26647 3.98328C2.25149 4.0221 2.22523 4.05555 2.19107 4.07932C2.15691 4.10308 2.11641 4.11607 2.0748 4.11661H0.833136C0.668144 4.1151 0.506416 4.1626 0.368447 4.2531C0.230478 4.34359 0.122479 4.47301 0.0581365 4.62494C-0.0101705 4.79146 -0.0227312 4.97562 0.0223331 5.14987C0.0673974 5.32411 0.167665 5.47909 0.308137 5.59161L1.34147 6.30828C1.3804 6.3353 1.40847 6.37526 1.42068 6.42105C1.43288 6.46683 1.42844 6.51546 1.40814 6.55828L0.833136 7.93328C0.762082 8.09453 0.743969 8.27415 0.781401 8.44634C0.818833 8.61852 0.909884 8.77442 1.04147 8.89161C1.17262 9.01745 1.34132 9.09696 1.52186 9.11803C1.7024 9.13909 1.88487 9.10055 2.04147 9.00828L3.66647 8.09161C3.6975 8.07152 3.73367 8.06083 3.77064 8.06083C3.8076 8.06083 3.84378 8.07152 3.8748 8.09161L5.54147 9.00828C5.67477 9.07957 5.82364 9.11678 5.9748 9.11661C6.18533 9.11588 6.38778 9.0355 6.54147 8.89161C6.60456 8.80195 6.64723 8.69955 6.66647 8.59161C6.69701 8.5555 6.71378 8.50974 6.71378 8.46244C6.71378 8.41515 6.69701 8.36939 6.66647 8.33328C6.58331 8.2889 6.5051 8.23582 6.43314 8.17494ZM12.3415 4.91661C12.3214 4.87163 12.318 4.82101 12.3317 4.77372C12.3454 4.72643 12.3755 4.68553 12.4165 4.65828L13.4998 3.89994C13.6199 3.78394 13.7024 3.63453 13.7366 3.47108C13.7708 3.30763 13.755 3.13769 13.6915 2.98328C13.6234 2.83601 13.5138 2.71184 13.3761 2.62598C13.2384 2.54012 13.0787 2.49632 12.9165 2.49994H11.6665C11.6234 2.5011 11.5811 2.48891 11.5453 2.46503C11.5095 2.44116 11.482 2.40677 11.4665 2.36661L10.7831 0.483278C10.7145 0.334684 10.6036 0.209604 10.4643 0.123648C10.3249 0.0376922 10.1634 -0.00533227 9.9998 -5.55724e-05C9.8348 -0.0070027 9.67146 0.0352318 9.53051 0.121287C9.38956 0.207342 9.27735 0.333337 9.20814 0.483278L8.50814 2.34161C8.4984 2.3826 8.47646 2.41968 8.44522 2.44795C8.41398 2.47621 8.3749 2.49434 8.33314 2.49994H7.08314C6.91814 2.49843 6.75642 2.54593 6.61845 2.63643C6.48048 2.72692 6.37248 2.85634 6.30814 3.00828C6.23983 3.17479 6.22727 3.35895 6.27233 3.5332C6.3174 3.70745 6.41767 3.86242 6.55814 3.97494L7.58314 4.68328C7.62415 4.71053 7.65419 4.75143 7.66792 4.79872C7.68165 4.84601 7.67818 4.89663 7.65814 4.94161L7.05814 6.28328C6.99036 6.41361 6.95823 6.55954 6.96502 6.70629C6.97181 6.85303 7.01727 6.99537 7.0968 7.11889C7.17632 7.24241 7.28708 7.34271 7.41786 7.40962C7.54863 7.47654 7.69477 7.5077 7.84147 7.49994C7.99027 7.50243 8.13702 7.46502 8.26647 7.39161L9.93314 6.46661C9.96402 6.45054 9.99832 6.44215 10.0331 6.44215C10.068 6.44215 10.1023 6.45054 10.1331 6.46661L11.7998 7.39161C11.9293 7.46502 12.076 7.50243 12.2248 7.49994C12.4382 7.50134 12.644 7.4208 12.7998 7.27494C12.9332 7.15717 13.0254 6.99979 13.0628 6.82585C13.1003 6.65191 13.0812 6.47054 13.0081 6.30828L12.3415 4.91661ZM14.1081 13.4916C14.02 12.5581 13.5869 11.6909 12.8933 11.0598C12.1998 10.4287 11.2958 10.0789 10.3581 10.0789C9.42043 10.0789 8.51644 10.4287 7.82293 11.0598C7.12941 11.6909 6.69625 12.5581 6.60814 13.4916C6.60814 15.0249 6.2498 15.5583 5.9748 15.8333C5.88708 15.9074 5.81562 15.9988 5.76491 16.1018C5.71419 16.2048 5.68531 16.3172 5.68009 16.4319C5.67486 16.5467 5.6934 16.6612 5.73453 16.7684C5.77567 16.8756 5.83852 16.9732 5.91914 17.0549C5.99975 17.1367 6.0964 17.2009 6.20301 17.2436C6.30963 17.2862 6.4239 17.3064 6.53868 17.3028C6.65345 17.2992 6.76624 17.2719 6.86997 17.2227C6.9737 17.1734 7.06613 17.1033 7.14147 17.0166C7.32759 16.835 7.48999 16.6306 7.6248 16.4083C7.64161 16.383 7.66375 16.3617 7.68966 16.3458C7.71557 16.33 7.74463 16.32 7.7748 16.3166C7.83354 16.3104 7.89258 16.3251 7.94147 16.3583C8.13476 16.5295 8.3473 16.6778 8.5748 16.7999C8.61104 16.8183 8.64082 16.8473 8.66017 16.883C8.67952 16.9188 8.68753 16.9595 8.68314 16.9999C8.68219 17.0383 8.66978 17.0754 8.64749 17.1066C8.62521 17.1378 8.59409 17.1616 8.55814 17.1749C7.49367 17.5985 6.60978 18.3792 6.05814 19.3833C6.02146 19.4451 6.00211 19.5156 6.00211 19.5874C6.00211 19.6593 6.02146 19.7298 6.05814 19.7916C6.09314 19.8558 6.14504 19.9091 6.20821 19.9458C6.27139 19.9825 6.34341 20.0013 6.41647 19.9999H14.3165C14.3895 20.0013 14.4616 19.9825 14.5247 19.9458C14.5879 19.9091 14.6398 19.8558 14.6748 19.7916C14.7115 19.7298 14.7308 19.6593 14.7308 19.5874C14.7308 19.5156 14.7115 19.4451 14.6748 19.3833C14.1232 18.3792 13.2393 17.5985 12.1748 17.1749C12.1389 17.1616 12.1077 17.1378 12.0854 17.1066C12.0632 17.0754 12.0507 17.0383 12.0498 16.9999C12.0454 16.9595 12.0534 16.9188 12.0728 16.883C12.0921 16.8473 12.1219 16.8183 12.1581 16.7999C12.3839 16.6749 12.5961 16.5269 12.7915 16.3583C12.8404 16.3251 12.8994 16.3104 12.9581 16.3166C12.9883 16.32 13.0174 16.33 13.0433 16.3458C13.0692 16.3617 13.0913 16.383 13.1081 16.4083C13.243 16.6306 13.4054 16.835 13.5915 17.0166C13.7467 17.1706 13.9562 17.2574 14.1748 17.2583C14.2851 17.2578 14.3941 17.2355 14.4957 17.1926C14.5973 17.1497 14.6893 17.087 14.7665 17.0083C14.9217 16.8521 15.0088 16.6409 15.0088 16.4208C15.0088 16.2006 14.9217 15.9894 14.7665 15.8333C14.4665 15.5583 14.1081 14.9999 14.1081 13.4916ZM10.3415 15.5916C9.84588 15.5907 9.36659 15.4145 8.98837 15.0942C8.61016 14.774 8.3574 14.3303 8.2748 13.8416C8.26719 13.7878 8.2801 13.733 8.31097 13.6882C8.34185 13.6435 8.38843 13.612 8.44147 13.5999C8.72937 13.5507 9.00954 13.4639 9.2748 13.3416C9.63337 13.1753 9.94114 12.9164 10.1665 12.5916C10.2078 12.5403 10.2677 12.5073 10.3331 12.4999C10.3657 12.4985 10.3981 12.5054 10.4273 12.52C10.4564 12.5346 10.4814 12.5564 10.4998 12.5833C10.7404 12.8741 11.021 13.1294 11.3331 13.3416C11.5867 13.5166 11.8686 13.6463 12.1665 13.7249C12.1933 13.7309 12.2188 13.742 12.2413 13.7578C12.2638 13.7736 12.283 13.7937 12.2977 13.8169C12.3125 13.8402 12.3224 13.8661 12.3271 13.8932C12.3317 13.9204 12.3309 13.9481 12.3248 13.9749C12.2185 14.4253 11.9664 14.8279 11.6078 15.1202C11.2491 15.4126 10.804 15.5783 10.3415 15.5916Z" fill="black"/>
</g>
<defs>
<clipPath id="clip0_23_415">
<rect width="20" height="20" fill="white"/>
</clipPath>
</defs>
</svg>
