<svg width="16" height="16" viewBox="0 0 16 16" fill="none" xmlns="http://www.w3.org/2000/svg">
<path d="M5.49979 12.4389C5.51979 12.5888 5.46979 12.7488 5.35481 12.8538C5.30856 12.9001 5.25362 12.9369 5.19314 12.962C5.13267 12.9871 5.06783 13 5.00236 13C4.93688 13 4.87205 12.9871 4.81157 12.962C4.75109 12.9369 4.69616 12.9001 4.64991 12.8538L2.64518 10.8491C2.59069 10.7957 2.54925 10.7306 2.52411 10.6586C2.49896 10.5866 2.49078 10.5098 2.5002 10.4341V7.87447L0.105536 4.80989C0.0243514 4.70567 -0.0122807 4.57355 0.00364417 4.4424C0.019569 4.31126 0.0867561 4.19175 0.190524 4.10998C0.285511 4.03999 0.390497 4 0.500481 4H7.49951C7.6095 4 7.71448 4.03999 7.80947 4.10998C7.91324 4.19175 7.98042 4.31126 7.99635 4.4424C8.01227 4.57355 7.97564 4.70567 7.89446 4.80989L5.49979 7.87447V12.4389ZM0.500481 4.4424L2.99051 7.87447V10.4341L5.00236 12.4389V7.87447L7.49951 4.4424H0.500481Z" fill="black"/>
</svg>
